<?xml version="1.0" standalone="no"?>
<!DOCTYPE svg PUBLIC "-//W3C//DTD SVG 20010904//EN"
 "http://www.w3.org/TR/2001/REC-SVG-20010904/DTD/svg10.dtd">


<svg xmlns="http://www.w3.org/2000/svg" xmlns:xlink="http://www.w3.org/1999/xlink" width="320" height="318" viewBox="720 600 610 450">
<path fill="#ffffff" opacity="1.000000" stroke="none" 
	d="
M793.937378,1043.064941 
	C762.880798,1011.317749 739.826904,974.825806 724.594055,933.573486 
	C707.404724,887.022705 701.961731,838.945862 707.575012,789.597046 
	C713.205383,740.097534 729.839050,694.622559 757.470642,653.249451 
	C791.416687,602.421753 836.391479,564.505066 892.421387,540.008606 
	C944.539429,517.222351 999.044617,509.185455 1055.426636,516.388916 
	C1131.811401,526.147827 1196.088867,559.855103 1248.074463,616.666504 
	C1279.560303,651.075134 1301.861694,690.875366 1315.361206,735.464478 
	C1327.827637,776.641296 1331.264282,818.701843 1326.412109,861.484375 
	C1320.158325,916.624756 1300.364014,966.488464 1267.444336,1010.952942 
	C1235.029785,1054.735107 1193.763794,1087.823853 1143.942749,1110.173950 
	C1118.757324,1121.472290 1092.557495,1129.336670 1065.342041,1133.502930 
	C1036.063232,1137.984863 1006.677307,1138.381104 977.199768,1134.580444 
	C923.265442,1127.626587 874.491089,1107.895264 831.016174,1075.475220 
	C817.988953,1065.760620 806.414673,1054.097412 793.937378,1043.064941 
M1305.252930,814.682739 
	C1304.195679,790.292358 1300.509155,766.308594 1293.445312,742.933167 
	C1283.049805,708.533875 1267.096436,676.903076 1244.739136,648.705261 
	C1193.590210,584.194397 1126.923462,547.287292 1045.143188,538.542603 
	C1006.156128,534.373718 967.610840,538.464966 930.152893,550.380249 
	C898.895264,560.323364 869.849915,574.891724 843.824097,594.954773 
	C780.972534,643.406372 743.064758,706.697510 731.453186,785.435059 
	C725.302612,827.141907 728.627319,868.233765 740.634399,908.502319 
	C752.477966,948.222595 772.093384,983.853149 799.596680,1014.988586 
	C845.561646,1067.023804 902.713074,1098.986572 971.283447,1110.289429 
	C1021.883789,1118.630005 1071.307617,1113.489746 1119.132690,1095.452271 
	C1167.096924,1077.362427 1207.659302,1048.317261 1240.010864,1008.462524 
	C1285.559326,952.350037 1307.066528,887.885498 1305.252930,814.682739 
z"/>
<path fill="#000000" opacity="1.000000" stroke="none" 
	d="
M1305.273682,815.163940 
	C1307.066528,887.885498 1285.559326,952.350037 1240.010864,1008.462524 
	C1207.659302,1048.317261 1167.096924,1077.362427 1119.132690,1095.452271 
	C1071.307617,1113.489746 1021.883789,1118.630005 971.283447,1110.289429 
	C902.713074,1098.986572 845.561646,1067.023804 799.596680,1014.988586 
	C772.093384,983.853149 752.477966,948.222595 740.634399,908.502319 
	C728.627319,868.233765 725.302612,827.141907 731.453186,785.435059 
	C743.064758,706.697510 780.972534,643.406372 843.824097,594.954773 
	C869.849915,574.891724 898.895264,560.323364 930.152893,550.380249 
	C967.610840,538.464966 1006.156128,534.373718 1045.143188,538.542603 
	C1126.923462,547.287292 1193.590210,584.194397 1244.739136,648.705261 
	C1267.096436,676.903076 1283.049805,708.533875 1293.445312,742.933167 
	C1300.509155,766.308594 1304.195679,790.292358 1305.273682,815.163940 
M1136.576172,913.159729 
	C1154.837402,888.361694 1173.128418,863.585449 1191.346436,838.755676 
	C1199.587280,827.524109 1199.359741,823.298096 1191.062988,812.044250 
	C1162.020996,772.651428 1133.071899,733.190125 1104.065552,693.770874 
	C1097.554565,684.922485 1091.176880,675.961731 1084.317993,667.388550 
	C1079.747192,661.675476 1072.953247,660.528381 1066.771484,663.470459 
	C1060.491577,666.459290 1056.613403,672.722046 1058.312256,679.346741 
	C1059.382080,683.518433 1061.996948,687.485291 1064.603394,691.042175 
	C1092.942871,729.715088 1121.420776,768.286621 1149.836548,806.903687 
	C1150.441284,807.725464 1150.755737,808.760803 1151.517090,810.344421 
	C1148.792236,810.344421 1146.818970,810.344421 1144.845703,810.344421 
	C1049.027100,810.344360 953.208435,810.343689 857.389832,810.347961 
	C855.224304,810.348022 853.043823,810.251160 850.896057,810.462158 
	C843.645691,811.174316 838.274048,816.127258 836.805969,823.293945 
	C835.594482,829.207947 838.969971,836.328735 845.080322,838.892761 
	C848.316528,840.250732 852.184326,840.564270 855.767700,840.567383 
	C952.419495,840.651184 1049.071289,840.633484 1145.723145,840.632874 
	C1147.448242,840.632874 1149.173340,840.632812 1151.800659,840.632812 
	C1150.543579,842.829590 1149.940918,844.153259 1149.101440,845.304199 
	C1144.785278,851.221924 1140.394653,857.085266 1136.055054,862.985962 
	C1111.299683,896.645996 1086.517090,930.286011 1061.872070,964.026550 
	C1060.077393,966.483521 1058.625244,969.581604 1058.182251,972.555664 
	C1057.187378,979.233765 1061.438721,985.825867 1067.422363,988.070679 
	C1074.415405,990.694153 1081.005493,988.679321 1085.846313,982.124817 
	C1102.658447,959.361084 1119.395630,936.541931 1136.576172,913.159729 
z"/>


<path fill="#7EF9D4" opacity="1.000000" stroke="none" 
	d="
M1136.368774,913.451782 
	C1119.395630,936.541931 1102.658447,959.361084 1085.846313,982.124817 
	C1081.005493,988.679321 1074.415405,990.694153 1067.422363,988.070679 
	C1061.438721,985.825867 1057.187378,979.233765 1058.182251,972.555664 
	C1058.625244,969.581604 1060.077393,966.483521 1061.872070,964.026550 
	C1086.517090,930.286011 1111.299683,896.645996 1136.055054,862.985962 
	C1140.394653,857.085266 1144.785278,851.221924 1149.101440,845.304199 
	C1149.940918,844.153259 1150.543579,842.829590 1151.800659,840.632812 
	C1149.173340,840.632812 1147.448242,840.632874 1145.723145,840.632874 
	C1049.071289,840.633484 952.419495,840.651184 855.767700,840.567383 
	C852.184326,840.564270 848.316528,840.250732 845.080322,838.892761 
	C838.969971,836.328735 835.594482,829.207947 836.805969,823.293945 
	C838.274048,816.127258 843.645691,811.174316 850.896057,810.462158 
	C853.043823,810.251160 855.224304,810.348022 857.389832,810.347961 
	C953.208435,810.343689 1049.027100,810.344360 1144.845703,810.344421 
	C1146.818970,810.344421 1148.792236,810.344421 1151.517090,810.344421 
	C1150.755737,808.760803 1150.441284,807.725464 1149.836548,806.903687 
	C1121.420776,768.286621 1092.942871,729.715088 1064.603394,691.042175 
	C1061.996948,687.485291 1059.382080,683.518433 1058.312256,679.346741 
	C1056.613403,672.722046 1060.491577,666.459290 1066.771484,663.470459 
	C1072.953247,660.528381 1079.747192,661.675476 1084.317993,667.388550 
	C1091.176880,675.961731 1097.554565,684.922485 1104.065552,693.770874 
	C1133.071899,733.190125 1162.020996,772.651428 1191.062988,812.044250 
	C1199.359741,823.298096 1199.587280,827.524109 1191.346436,838.755676 
	C1173.128418,863.585449 1154.837402,888.361694 1136.368774,913.451782 
z"/>
</svg>