<?xml version="1.0" encoding="UTF-8" standalone="no"?>


<svg 
width="320" 
height="318" 
viewBox="0 0 2028 2018"
class="css-1j8o68f"
version="1.1"
sodipodi:docname="logo.svg"
xmlns="http://www.w3.org/2000/svg"
xmlns:sodipodi="http://sodipodi.sourceforge.net/DTD/sodipodi-0.dtd"
xmlns:inkscape="http://www.inkscape.org/namespaces/inkscape"
xmlns:svg="http://www.w3.org/2000/svg" 
xmlns:xlink="http://www.w3.org/1999/xlink" >
<sodipodi:namedview
     pagecolor="#ffffff"
     bordercolor="#000000"
     borderopacity="0.25"
     inkscape:showpageshadow="2"
     inkscape:pageopacity="0.0"
     inkscape:pagecheckerboard="0"
     inkscape:deskcolor="#d1d1d1"/>

<path fill="#ffffff" opacity="1.000000" stroke="none" 
	d="
M209.890091,757.890015 
	C224.869476,742.908630 239.546844,728.124573 254.377930,713.496338 
	C256.942291,710.967102 258.059601,708.457520 258.031830,704.782288 
	C257.441620,626.789185 256.822296,548.795593 256.596863,470.800964 
	C256.523590,445.450562 258.665497,420.190918 264.091919,395.351746 
	C271.468445,361.585938 284.613953,330.760986 310.396332,306.546631 
	C326.696899,291.237427 345.846313,280.886597 366.980835,274.045563 
	C394.845428,265.026031 423.613037,262.196869 452.713562,262.168243 
	C535.042786,262.087311 617.372192,262.111603 699.701294,262.224030 
	C703.851990,262.229706 706.784546,261.115662 709.755493,258.135193 
	C766.347656,201.362671 823.061523,144.711472 879.729065,88.014099 
	C900.622009,67.110146 922.701721,47.752678 948.866028,33.514168 
	C979.376343,16.910564 1011.569946,9.821165 1046.076538,16.327042 
	C1071.640015,21.146765 1094.484497,32.416531 1115.927368,46.822300 
	C1143.891235,65.609108 1167.750366,89.038101 1191.265503,112.907669 
	C1239.332275,161.698883 1287.517944,210.373199 1335.798950,258.952179 
	C1337.615601,260.780121 1340.936523,262.004944 1343.559448,262.010223 
	C1422.388672,262.169678 1501.218140,262.136871 1580.047607,262.141357 
	C1604.782715,262.142761 1629.330688,264.137909 1653.389648,270.109833 
	C1707.099854,283.441833 1744.117798,315.328674 1762.288696,368.266022 
	C1774.581299,404.078674 1777.528687,441.155640 1777.427856,478.570679 
	C1777.232910,550.899353 1776.519287,623.226562 1776.220337,695.555176 
	C1776.210327,697.948486 1777.815552,700.905029 1779.591797,702.668274 
	C1831.158081,753.853821 1882.941284,804.821045 1934.463867,856.050415 
	C1958.624878,880.073975 1980.600586,905.898804 1996.864258,936.132202 
	C2012.313599,964.851624 2020.042236,995.222229 2015.811523,1027.919067 
	C2012.616699,1052.609619 2002.783447,1074.856567 1989.404785,1095.661377 
	C1976.631348,1115.525146 1961.087280,1133.078735 1944.452148,1149.721313 
	C1889.785767,1204.411987 1835.119751,1259.103027 1780.369263,1313.709473 
	C1777.338257,1316.732544 1775.905762,1319.677856 1775.940918,1324.117798 
	C1776.559937,1402.277222 1777.209351,1480.437744 1777.341309,1558.598999 
	C1777.388062,1586.284668 1774.739380,1613.824585 1767.968140,1640.803467 
	C1756.460083,1686.656250 1733.026123,1723.522583 1689.222900,1744.978882 
	C1666.661621,1756.030029 1642.605347,1761.884766 1617.762451,1763.782593 
	C1597.359009,1765.340942 1576.829346,1765.712524 1556.353149,1765.773560 
	C1482.524048,1765.993652 1408.693848,1765.897827 1334.864380,1765.767090 
	C1330.357178,1765.759155 1327.171021,1766.960571 1323.946655,1770.195679 
	C1266.768311,1827.560303 1209.491577,1884.827026 1152.174683,1942.053467 
	C1130.780762,1963.413940 1107.892944,1982.874512 1080.774292,1996.787109 
	C1051.288452,2011.914062 1020.275146,2017.911499 987.464417,2011.570068 
	C962.123840,2006.672607 939.398804,1995.494873 918.105164,1981.193970 
	C890.001038,1962.318848 866.059387,1938.736328 842.437561,1914.733643 
	C794.512817,1866.036621 746.419800,1817.505127 698.251709,1769.048828 
	C696.433960,1767.220337 693.111755,1765.995361 690.487610,1765.989868 
	C612.825073,1765.829834 535.162170,1765.837646 457.499298,1765.872559 
	C431.598389,1765.884155 405.867065,1764.119873 380.656586,1757.873657 
	C329.611725,1745.226929 292.967926,1715.715332 273.906647,1665.869873 
	C259.622406,1628.516235 256.424438,1589.439087 256.530762,1549.992920 
	C256.726196,1477.497559 257.465057,1405.003784 257.760071,1332.508545 
	C257.770386,1329.977539 256.033112,1326.858643 254.145828,1324.985596 
	C203.404495,1274.624268 152.462341,1224.465332 101.722076,1174.103027 
	C76.830330,1149.396729 53.944633,1123.051880 37.179085,1091.917236 
	C21.717329,1063.203735 13.967585,1032.855591 18.148737,1000.154297 
	C21.195925,976.321777 30.480228,954.742249 43.178188,934.504761 
	C56.095547,913.917542 72.012230,895.809448 89.111305,878.683716 
	C129.258713,838.473633 169.460373,798.317810 209.890091,757.890015 
M286.269897,1070.499512 
	C286.091064,1151.000854 285.931458,1231.502441 285.667023,1312.003418 
	C285.655792,1315.426392 286.570129,1317.844849 289.043823,1320.298096 
	C350.928497,1381.671631 412.882355,1442.976807 474.503052,1504.614868 
	C550.734375,1580.867310 626.692505,1657.392822 702.683472,1733.885010 
	C705.621094,1736.841919 708.507324,1738.015381 712.683899,1738.000366 
	C756.515137,1737.843262 800.347229,1737.900391 844.179077,1737.907227 
	C846.011169,1737.907593 847.859863,1737.854492 849.672424,1738.067749 
	C858.112976,1739.060303 863.711731,1748.368042 860.701355,1756.302612 
	C858.306274,1762.615479 853.484497,1765.740601 845.830322,1765.745483 
	C810.831482,1765.767822 775.832703,1765.749756 740.833862,1765.765137 
	C739.177185,1765.765869 737.520630,1765.947998 735.864014,1766.045654 
	C735.690308,1766.542358 735.516602,1767.038940 735.342834,1767.535645 
	C737.568054,1769.508057 739.912048,1771.362793 742.001099,1773.470215 
	C789.280640,1821.166504 836.370728,1869.052002 883.857422,1916.541016 
	C907.593079,1940.277954 933.411377,1961.380493 964.487427,1975.192749 
	C997.261963,1989.759521 1029.841919,1989.756592 1062.425415,1974.617310 
	C1086.905518,1963.243164 1107.729858,1946.766113 1126.692993,1927.937622 
	C1179.909912,1875.098877 1232.860596,1821.991943 1285.907227,1768.981689 
	C1286.557983,1768.331177 1287.086060,1767.557617 1288.345459,1766.016602 
	C1285.913696,1765.900757 1284.357910,1765.762695 1282.802124,1765.762085 
	C1251.469849,1765.750244 1220.137573,1765.754883 1188.805298,1765.753784 
	C1183.805542,1765.753540 1178.798828,1765.905029 1173.807739,1765.692505 
	C1167.501099,1765.424072 1162.428833,1761.250244 1160.621216,1755.233887 
	C1159.146606,1750.325806 1160.831787,1744.002319 1165.609741,1741.112549 
	C1168.809814,1739.177124 1173.017334,1738.050171 1176.780640,1738.033325 
	C1221.944824,1737.831055 1267.110474,1737.957275 1312.274780,1737.769287 
	C1314.886841,1737.758423 1318.136108,1736.438232 1319.997925,1734.614014 
	C1337.494873,1717.470093 1354.755005,1700.084595 1372.081299,1682.766602 
	C1384.339478,1670.514038 1396.625366,1658.289062 1408.833618,1645.986938 
	C1413.200317,1641.586670 1418.455200,1640.468872 1423.980347,1642.442383 
	C1429.184082,1644.301147 1432.281738,1648.472290 1432.789307,1654.157715 
	C1433.257812,1659.403564 1430.770752,1663.367310 1427.182373,1666.940918 
	C1409.233398,1684.815918 1391.358032,1702.764893 1373.433716,1720.664673 
	C1368.047363,1726.043579 1362.585449,1731.346802 1357.158203,1736.684692 
	C1357.294800,1737.117798 1357.431519,1737.550781 1357.568115,1737.983765 
	C1359.123657,1737.983765 1360.679077,1737.983887 1362.234619,1737.983887 
	C1433.898926,1737.982666 1505.563110,1737.985107 1577.227417,1737.977661 
	C1603.964478,1737.974976 1630.419067,1735.889160 1656.212769,1728.110596 
	C1696.108154,1716.079224 1722.438232,1690.197266 1736.048828,1650.976440 
	C1745.104370,1624.881104 1748.976318,1597.794678 1749.107666,1570.459717 
	C1749.459839,1497.135986 1748.779541,1423.807251 1748.474609,1350.480713 
	C1748.470337,1349.454590 1748.014160,1348.430176 1747.649658,1346.906494 
	C1746.434570,1347.937988 1745.660400,1348.506470 1744.989014,1349.177734 
	C1717.647095,1376.515015 1690.324951,1403.871826 1662.958862,1431.184814 
	C1660.970215,1433.169556 1658.843506,1435.119385 1656.476685,1436.598511 
	C1652.362061,1439.170044 1647.849609,1439.097656 1643.624756,1436.912476 
	C1634.373901,1432.128418 1633.358643,1421.576904 1641.355225,1413.568726 
	C1675.504395,1379.369507 1709.657104,1345.173462 1743.923706,1311.091919 
	C1746.981079,1308.051025 1748.292236,1305.039185 1748.290161,1300.669800 
	C1748.200195,1106.343628 1748.213745,912.017334 1748.359375,717.691162 
	C1748.363037,712.770447 1746.893066,709.409790 1743.445312,705.992004 
	C1681.428955,644.513916 1619.387329,583.060120 1557.640869,521.311279 
	C1481.871216,445.538635 1406.355225,369.512421 1330.812012,293.513733 
	C1328.228149,290.914215 1325.707275,289.935852 1322.099731,289.944885 
	C1276.934937,290.058319 1231.769775,290.020569 1186.604614,290.014252 
	C1184.605591,290.013977 1182.585083,290.117188 1180.611694,289.872101 
	C1174.758667,289.145142 1170.842285,285.729218 1168.848999,280.351532 
	C1166.929932,275.174347 1168.395630,270.514008 1172.101318,266.554352 
	C1175.413208,263.015564 1179.621460,262.091125 1184.345825,262.100983 
	C1220.677734,262.176605 1257.009888,262.147125 1293.342041,262.131256 
	C1294.983276,262.130524 1296.624512,261.947113 1298.918823,261.809631 
	C1297.967529,260.497009 1297.731445,260.063782 1297.398315,259.726624 
	C1256.866333,218.715912 1216.334961,177.704575 1175.785522,136.711258 
	C1152.476685,113.147385 1129.348633,89.383369 1101.735840,70.633453 
	C1084.144043,58.688095 1065.486328,48.954514 1044.608521,44.316467 
	C1017.682312,38.334763 992.060425,42.883961 967.596619,55.087421 
	C945.787903,65.966415 926.732483,80.721031 909.552612,97.774437 
	C855.382751,151.545837 801.481079,205.587418 747.490112,259.538940 
	C746.999634,260.029114 746.708374,260.718658 745.959167,261.881500 
	C748.132690,261.994476 749.568665,262.133423 751.004700,262.134125 
	C776.003845,262.146576 801.003052,262.141113 826.002197,262.141846 
	C833.835205,262.142059 841.673950,261.961823 849.499878,262.199188 
	C859.966370,262.516693 866.402161,272.754181 861.945312,282.037109 
	C859.023865,288.122101 853.696045,290.084167 847.113403,290.068512 
	C805.281738,289.968964 763.449402,289.961884 721.618347,290.156799 
	C719.012756,290.168915 715.765076,291.493042 713.914551,293.319641 
	C690.787109,316.148651 667.864563,339.185303 644.885376,362.164551 
	C637.225708,369.824188 629.674500,377.597595 621.851929,385.087372 
	C615.179565,391.475830 605.538086,390.583008 600.512512,383.447540 
	C596.246277,377.390259 597.250366,370.511810 603.561646,364.182312 
	C627.096436,340.579712 650.681458,317.027191 674.240845,293.449036 
	C675.012146,292.677124 675.709045,291.830811 677.412537,289.940735 
	C674.661072,289.940735 673.108887,289.940704 671.556702,289.940735 
	C599.725769,289.941681 527.894836,289.960297 456.063934,289.934418 
	C429.485870,289.924835 403.220703,292.018341 377.594604,299.814484 
	C337.754517,311.934967 311.449158,337.752838 297.860352,376.995575 
	C288.872955,402.950043 284.967834,429.860077 284.833832,457.019409 
	C284.471252,530.510132 285.190643,604.006165 285.517151,677.500000 
	C285.521667,678.515564 285.997681,679.529053 286.350433,680.927124 
	C287.345154,680.202209 287.920471,679.888733 288.364502,679.444092 
	C307.559479,660.222595 326.739380,640.986084 345.929352,621.759583 
	C352.993103,614.682434 359.944305,607.485291 367.198181,600.608093 
	C372.106476,595.954651 378.510498,595.427795 383.800934,598.590942 
	C389.075653,601.744690 392.003723,607.997620 389.928833,614.082092 
	C388.760071,617.509338 386.195374,620.721863 383.578674,623.354309 
	C352.444519,654.675903 321.222260,685.910339 289.888031,717.031738 
	C286.933105,719.966614 285.695496,722.818787 285.705505,727.011963 
	C285.977753,841.174194 286.112335,955.336853 286.269897,1070.499512 
M639.892273,1709.610474 
	C591.739502,1660.920654 543.846924,1611.970093 495.371613,1563.603638 
	C426.727264,1495.113647 357.654022,1427.053589 288.747864,1358.826172 
	C288.123962,1358.208496 287.278137,1357.814697 285.437988,1356.579102 
	C285.437988,1359.882202 285.445251,1362.118896 285.436920,1364.355469 
	C285.182159,1432.835571 284.462616,1501.318481 284.886017,1569.794434 
	C285.068573,1599.312988 289.140106,1628.538452 299.977478,1656.404297 
	C311.731018,1686.625854 331.699432,1709.051514 361.702393,1722.153320 
	C387.963470,1733.621460 415.765839,1737.578369 444.005127,1737.757568 
	C516.818298,1738.219971 589.635986,1737.962036 662.451904,1737.973022 
	C663.803345,1737.973145 665.154846,1737.738037 666.506287,1737.612671 
	C666.757080,1737.113037 667.007874,1736.613403 667.258728,1736.113770 
	C658.302917,1727.447388 649.347107,1718.781006 639.892273,1709.610474 
M1605.262817,290.819214 
	C1600.105835,290.578278 1594.948975,290.132477 1589.791748,290.127258 
	C1517.313110,290.054199 1444.834351,290.041168 1372.355713,290.013672 
	C1370.801758,290.013092 1369.247803,290.013580 1366.427612,290.013580 
	C1492.760010,418.973755 1619.388062,545.483643 1748.212891,671.634338 
	C1748.377930,668.661377 1748.516968,667.218323 1748.529053,665.774231 
	C1748.636108,652.945068 1748.851562,640.115112 1748.789185,627.286560 
	C1748.483887,564.492065 1751.918701,501.676880 1747.993530,438.905457 
	C1746.438354,414.032593 1741.829346,389.751251 1732.003052,366.673340 
	C1718.324341,334.547211 1694.879517,313.047607 1661.868042,301.661133 
	C1643.775391,295.420471 1625.135620,292.474762 1605.262817,290.819214 
M1924.649658,885.854492 
	C1875.523438,836.997864 1826.397095,788.141235 1776.281006,738.300171 
	C1774.143921,919.245972 1773.825073,1098.395752 1776.308350,1278.475952 
	C1777.670898,1277.259399 1778.171021,1276.855347 1778.623047,1276.403076 
	C1817.374268,1237.638794 1856.212524,1198.960938 1894.833130,1160.067139 
	C1915.591919,1139.161377 1937.513916,1119.331665 1955.452881,1095.760498 
	C1968.949707,1078.025879 1980.128418,1059.046021 1985.751953,1037.278687 
	C1992.847656,1009.812500 1988.743164,983.511414 1976.853882,958.115295 
	C1964.130615,930.937500 1945.519775,908.015991 1924.649658,885.854492 
M49.813992,985.482727 
	C48.144146,994.794556 45.527245,1004.052063 44.988590,1013.428833 
	C43.580879,1037.934082 51.267925,1060.302124 63.046738,1081.443604 
	C79.107140,1110.269897 101.062897,1134.364014 124.306870,1157.384644 
	C166.931046,1199.599121 209.646423,1241.721313 252.322845,1283.883057 
	C253.876495,1285.418091 255.419907,1286.963623 257.710297,1289.242798 
	C259.862732,1108.775879 260.151276,929.645630 257.696106,749.754700 
	C256.350403,750.886841 255.590393,751.435425 254.936111,752.089722 
	C227.716003,779.310364 200.379318,806.416016 173.327484,833.802979 
	C143.826553,863.669434 114.095383,893.334717 85.432182,923.992310 
	C69.225029,941.327148 57.202778,961.776978 49.813992,985.482727 
z"/>
<path fill="#000000" opacity="0.000000" stroke="none" 
	d="
M286.269958,1069.999512 
	C286.112335,955.336853 285.977753,841.174194 285.705505,727.011963 
	C285.695496,722.818787 286.933105,719.966614 289.888031,717.031738 
	C321.222260,685.910339 352.444519,654.675903 383.578674,623.354309 
	C386.195374,620.721863 388.760071,617.509338 389.928833,614.082092 
	C392.003723,607.997620 389.075653,601.744690 383.800934,598.590942 
	C378.510498,595.427795 372.106476,595.954651 367.198181,600.608093 
	C359.944305,607.485291 352.993103,614.682434 345.929352,621.759583 
	C326.739380,640.986084 307.559479,660.222595 288.364502,679.444092 
	C287.920471,679.888733 287.345154,680.202209 286.350433,680.927124 
	C285.997681,679.529053 285.521667,678.515564 285.517151,677.500000 
	C285.190643,604.006165 284.471252,530.510132 284.833832,457.019409 
	C284.967834,429.860077 288.872955,402.950043 297.860352,376.995575 
	C311.449158,337.752838 337.754517,311.934967 377.594604,299.814484 
	C403.220703,292.018341 429.485870,289.924835 456.063934,289.934418 
	C527.894836,289.960297 599.725769,289.941681 671.556702,289.940735 
	C673.108887,289.940704 674.661072,289.940735 677.412537,289.940735 
	C675.709045,291.830811 675.012146,292.677124 674.240845,293.449036 
	C650.681458,317.027191 627.096436,340.579712 603.561646,364.182312 
	C597.250366,370.511810 596.246277,377.390259 600.512512,383.447540 
	C605.538086,390.583008 615.179565,391.475830 621.851929,385.087372 
	C629.674500,377.597595 637.225708,369.824188 644.885376,362.164551 
	C667.864563,339.185303 690.787109,316.148651 713.914551,293.319641 
	C715.765076,291.493042 719.012756,290.168915 721.618347,290.156799 
	C763.449402,289.961884 805.281738,289.968964 847.113403,290.068512 
	C853.696045,290.084167 859.023865,288.122101 861.945312,282.037109 
	C866.402161,272.754181 859.966370,262.516693 849.499878,262.199188 
	C841.673950,261.961823 833.835205,262.142059 826.002197,262.141846 
	C801.003052,262.141113 776.003845,262.146576 751.004700,262.134125 
	C749.568665,262.133423 748.132690,261.994476 745.959167,261.881500 
	C746.708374,260.718658 746.999634,260.029114 747.490112,259.538940 
	C801.481079,205.587418 855.382751,151.545837 909.552612,97.774437 
	C926.732483,80.721031 945.787903,65.966415 967.596619,55.087421 
	C992.060425,42.883961 1017.682312,38.334763 1044.608521,44.316467 
	C1065.486328,48.954514 1084.144043,58.688095 1101.735840,70.633453 
	C1129.348633,89.383369 1152.476685,113.147385 1175.785522,136.711258 
	C1216.334961,177.704575 1256.866333,218.715912 1297.398315,259.726624 
	C1297.731445,260.063782 1297.967529,260.497009 1298.918823,261.809631 
	C1296.624512,261.947113 1294.983276,262.130524 1293.342041,262.131256 
	C1257.009888,262.147125 1220.677734,262.176605 1184.345825,262.100983 
	C1179.621460,262.091125 1175.413208,263.015564 1172.101318,266.554352 
	C1168.395630,270.514008 1166.929932,275.174347 1168.848999,280.351532 
	C1170.842285,285.729218 1174.758667,289.145142 1180.611694,289.872101 
	C1182.585083,290.117188 1184.605591,290.013977 1186.604614,290.014252 
	C1231.769775,290.020569 1276.934937,290.058319 1322.099731,289.944885 
	C1325.707275,289.935852 1328.228149,290.914215 1330.812012,293.513733 
	C1406.355225,369.512421 1481.871216,445.538635 1557.640869,521.311279 
	C1619.387329,583.060120 1681.428955,644.513916 1743.445312,705.992004 
	C1746.893066,709.409790 1748.363037,712.770447 1748.359375,717.691162 
	C1748.213745,912.017334 1748.200195,1106.343628 1748.290161,1300.669800 
	C1748.292236,1305.039185 1746.981079,1308.051025 1743.923706,1311.091919 
	C1709.657104,1345.173462 1675.504395,1379.369507 1641.355225,1413.568726 
	C1633.358643,1421.576904 1634.373901,1432.128418 1643.624756,1436.912476 
	C1647.849609,1439.097656 1652.362061,1439.170044 1656.476685,1436.598511 
	C1658.843506,1435.119385 1660.970215,1433.169556 1662.958862,1431.184814 
	C1690.324951,1403.871826 1717.647095,1376.515015 1744.989014,1349.177734 
	C1745.660400,1348.506470 1746.434570,1347.937988 1747.649658,1346.906494 
	C1748.014160,1348.430176 1748.470337,1349.454590 1748.474609,1350.480713 
	C1748.779541,1423.807251 1749.459839,1497.135986 1749.107666,1570.459717 
	C1748.976318,1597.794678 1745.104370,1624.881104 1736.048828,1650.976440 
	C1722.438232,1690.197266 1696.108154,1716.079224 1656.212769,1728.110596 
	C1630.419067,1735.889160 1603.964478,1737.974976 1577.227417,1737.977661 
	C1505.563110,1737.985107 1433.898926,1737.982666 1362.234619,1737.983887 
	C1360.679077,1737.983887 1359.123657,1737.983765 1357.568115,1737.983765 
	C1357.431519,1737.550781 1357.294800,1737.117798 1357.158203,1736.684692 
	C1362.585449,1731.346802 1368.047363,1726.043579 1373.433716,1720.664673 
	C1391.358032,1702.764893 1409.233398,1684.815918 1427.182373,1666.940918 
	C1430.770752,1663.367310 1433.257812,1659.403564 1432.789307,1654.157715 
	C1432.281738,1648.472290 1429.184082,1644.301147 1423.980347,1642.442383 
	C1418.455200,1640.468872 1413.200317,1641.586670 1408.833618,1645.986938 
	C1396.625366,1658.289062 1384.339478,1670.514038 1372.081299,1682.766602 
	C1354.755005,1700.084595 1337.494873,1717.470093 1319.997925,1734.614014 
	C1318.136108,1736.438232 1314.886841,1737.758423 1312.274780,1737.769287 
	C1267.110474,1737.957275 1221.944824,1737.831055 1176.780640,1738.033325 
	C1173.017334,1738.050171 1168.809814,1739.177124 1165.609741,1741.112549 
	C1160.831787,1744.002319 1159.146606,1750.325806 1160.621216,1755.233887 
	C1162.428833,1761.250244 1167.501099,1765.424072 1173.807739,1765.692505 
	C1178.798828,1765.905029 1183.805542,1765.753540 1188.805298,1765.753784 
	C1220.137573,1765.754883 1251.469849,1765.750244 1282.802124,1765.762085 
	C1284.357910,1765.762695 1285.913696,1765.900757 1288.345459,1766.016602 
	C1287.086060,1767.557617 1286.557983,1768.331177 1285.907227,1768.981689 
	C1232.860596,1821.991943 1179.909912,1875.098877 1126.692993,1927.937622 
	C1107.729858,1946.766113 1086.905518,1963.243164 1062.425415,1974.617310 
	C1029.841919,1989.756592 997.261963,1989.759521 964.487427,1975.192749 
	C933.411377,1961.380493 907.593079,1940.277954 883.857422,1916.541016 
	C836.370728,1869.052002 789.280640,1821.166504 742.001099,1773.470215 
	C739.912048,1771.362793 737.568054,1769.508057 735.342834,1767.535645 
	C735.516602,1767.038940 735.690308,1766.542358 735.864014,1766.045654 
	C737.520630,1765.947998 739.177185,1765.765869 740.833862,1765.765137 
	C775.832703,1765.749756 810.831482,1765.767822 845.830322,1765.745483 
	C853.484497,1765.740601 858.306274,1762.615479 860.701355,1756.302612 
	C863.711731,1748.368042 858.112976,1739.060303 849.672424,1738.067749 
	C847.859863,1737.854492 846.011169,1737.907593 844.179077,1737.907227 
	C800.347229,1737.900391 756.515137,1737.843262 712.683899,1738.000366 
	C708.507324,1738.015381 705.621094,1736.841919 702.683472,1733.885010 
	C626.692505,1657.392822 550.734375,1580.867310 474.503052,1504.614868 
	C412.882355,1442.976807 350.928497,1381.671631 289.043823,1320.298096 
	C286.570129,1317.844849 285.655792,1315.426392 285.667023,1312.003418 
	C285.931458,1231.502441 286.091064,1151.000854 286.269958,1069.999512 
M794.174744,1043.327026 
	C806.414673,1054.097412 817.988953,1065.760620 831.016174,1075.475220 
	C874.491089,1107.895264 923.265442,1127.626587 977.199768,1134.580444 
	C1006.677307,1138.381104 1036.063232,1137.984863 1065.342041,1133.502930 
	C1092.557495,1129.336670 1118.757324,1121.472290 1143.942749,1110.173950 
	C1193.763794,1087.823853 1235.029785,1054.735107 1267.444336,1010.952942 
	C1300.364014,966.488464 1320.158325,916.624756 1326.412109,861.484375 
	C1331.264282,818.701843 1327.827637,776.641296 1315.361206,735.464478 
	C1301.861694,690.875366 1279.560303,651.075134 1248.074463,616.666504 
	C1196.088867,559.855103 1131.811401,526.147827 1055.426636,516.388916 
	C999.044617,509.185455 944.539429,517.222351 892.421387,540.008606 
	C836.391479,564.505066 791.416687,602.421753 757.470642,653.249451 
	C729.839050,694.622559 713.205383,740.097534 707.575012,789.597046 
	C701.961731,838.945862 707.404724,887.022705 724.594055,933.573486 
	C739.826904,974.825806 762.880798,1011.317749 794.174744,1043.327026 
M1038.046997,1452.643921 
	C1039.294556,1468.248291 1040.286865,1483.879028 1041.895752,1499.446045 
	C1042.721558,1507.438232 1049.834106,1513.522949 1057.404175,1513.940552 
	C1065.213379,1514.371338 1071.832886,1509.696655 1073.389038,1501.159058 
	C1074.348877,1495.892822 1073.839966,1490.187134 1073.077881,1484.808105 
	C1069.668823,1460.748047 1065.362671,1436.803345 1062.442993,1412.688232 
	C1057.734741,1373.801147 1055.409058,1334.726074 1055.591309,1295.525513 
	C1055.635010,1286.125488 1055.520386,1286.124878 1064.804565,1285.839844 
	C1073.895020,1285.560791 1078.932251,1280.836304 1078.960693,1272.562500 
	C1078.990234,1263.966675 1073.321289,1258.212646 1064.617188,1258.046387 
	C1062.452393,1258.005127 1060.285034,1258.055786 1058.119629,1258.098999 
	C1027.641846,1258.708374 997.165222,1259.730591 966.686340,1259.802612 
	C944.207397,1259.855591 921.727844,1258.568115 899.244019,1258.085938 
	C890.240540,1257.892700 883.838684,1264.400757 884.001282,1272.940430 
	C884.147278,1280.613037 890.436523,1285.986938 899.343445,1285.803223 
	C903.667114,1285.713989 907.984070,1285.246582 912.301453,1284.916382 
	C931.564331,1283.443481 950.825439,1281.946167 970.090515,1280.501953 
	C971.567505,1280.391235 973.070312,1280.625977 975.259460,1280.734863 
	C974.222046,1282.284424 973.799683,1282.969360 973.325134,1283.616211 
	C963.995239,1296.333252 953.726990,1308.479370 945.568665,1321.907715 
	C936.106445,1337.481934 928.399048,1354.132324 920.159973,1370.431763 
	C918.415710,1373.882446 916.868958,1375.967163 912.418213,1375.502075 
	C906.311523,1374.864136 900.100342,1374.970215 893.946228,1375.159058 
	C891.204407,1375.243164 888.225464,1375.788818 885.820618,1377.029297 
	C880.100586,1379.979858 877.269836,1386.517700 878.673950,1392.157593 
	C880.189026,1398.242676 884.949951,1401.995605 891.865540,1402.270142 
	C896.220581,1402.442993 900.587952,1402.302368 905.387146,1402.302368 
	C904.949036,1404.029419 904.841858,1404.670776 904.625366,1405.272949 
	C895.456787,1430.771484 882.447937,1453.836060 863.192688,1473.295044 
	C857.565491,1478.981689 852.860107,1485.923828 849.115112,1493.020264 
	C846.139099,1498.659668 847.299011,1505.157471 851.845093,1510.229370 
	C855.604614,1514.423340 862.312195,1515.534668 868.464355,1512.336548 
	C872.788818,1510.088379 877.298096,1507.219604 880.222290,1503.459351 
	C886.108948,1495.889771 891.540833,1487.835205 896.144775,1479.424683 
	C908.876526,1456.166260 917.124878,1431.012085 925.931946,1406.123291 
	C927.067017,1402.915894 928.690186,1401.686768 932.071411,1401.711792 
	C964.541931,1401.952759 997.013367,1402.140869 1029.484497,1402.134766 
	C1033.534790,1402.134033 1034.564453,1403.677979 1034.798340,1407.338257 
	C1035.743652,1422.131470 1036.924316,1436.909790 1038.046997,1452.643921 
M1554.818970,1293.583740 
	C1554.851685,1285.625610 1553.203369,1285.865601 1562.544678,1285.849121 
	C1564.042603,1285.846558 1565.571411,1285.909302 1567.032227,1285.644775 
	C1571.856445,1284.771606 1575.963989,1282.744507 1577.686279,1277.740356 
	C1581.191162,1267.556885 1574.565796,1258.223633 1563.766235,1258.042236 
	C1561.767456,1258.008545 1559.767090,1258.078003 1557.767456,1258.096558 
	C1518.289185,1258.462891 1478.811401,1258.959229 1439.332397,1259.123901 
	C1425.510254,1259.181641 1411.686646,1258.286865 1397.859863,1258.094971 
	C1390.883667,1257.998169 1384.644897,1263.483276 1383.737427,1269.849121 
	C1382.615479,1277.720093 1385.955688,1283.078369 1393.795288,1285.228638 
	C1396.293457,1285.913940 1399.092407,1285.878662 1401.714844,1285.674316 
	C1419.984131,1284.251465 1438.239746,1282.656494 1456.507324,1281.209839 
	C1462.192383,1280.759521 1467.900024,1280.597168 1474.853394,1280.238159 
	C1473.310669,1282.521240 1472.653687,1283.568359 1471.923828,1284.562134 
	C1463.173340,1296.474487 1453.457764,1307.807129 1445.893433,1320.429321 
	C1436.265869,1336.494019 1428.273682,1353.548828 1419.820801,1370.299927 
	C1417.967041,1373.973633 1416.128662,1375.953857 1411.590088,1375.500977 
	C1405.476929,1374.890991 1399.274048,1375.086914 1393.110107,1375.100098 
	C1384.319458,1375.118774 1378.093994,1380.901367 1377.988403,1388.970947 
	C1377.881226,1397.148071 1383.258057,1402.096069 1392.597046,1402.316406 
	C1396.373535,1402.405396 1400.153931,1402.331177 1404.417358,1402.331177 
	C1404.080566,1404.330200 1404.076050,1405.668213 1403.626343,1406.834595 
	C1394.644897,1430.129272 1383.280518,1451.911377 1365.560913,1470.046143 
	C1359.348145,1476.404785 1354.027954,1483.786133 1349.163574,1491.262207 
	C1345.521240,1496.859863 1347.237793,1506.256226 1351.364502,1510.394531 
	C1355.559937,1514.601807 1362.845459,1515.510864 1369.483398,1511.783936 
	C1373.320923,1509.629272 1376.858765,1506.609131 1379.862183,1503.359741 
	C1390.876709,1491.443237 1397.719116,1476.898193 1403.888062,1462.200439 
	C1411.659668,1443.684814 1418.542603,1424.789795 1425.493774,1405.942261 
	C1426.743164,1402.554565 1428.461914,1401.705811 1431.670532,1401.727295 
	C1464.314453,1401.945190 1496.958862,1402.132080 1529.603271,1402.161987 
	C1533.180298,1402.165283 1533.999390,1403.475098 1534.219238,1406.771362 
	C1536.148315,1435.695801 1538.215088,1464.611450 1540.351196,1493.521484 
	C1540.582031,1496.645264 1541.217651,1499.812256 1542.179321,1502.793579 
	C1544.265503,1509.261353 1550.985962,1513.893433 1557.829468,1513.969971 
	C1564.507324,1514.044800 1570.246704,1510.266602 1572.106812,1503.027588 
	C1573.344849,1498.208984 1573.569214,1492.815430 1572.880371,1487.869507 
	C1569.597168,1464.292480 1565.356812,1440.842407 1562.369873,1417.231689 
	C1557.220459,1376.526489 1555.137329,1335.590942 1554.818970,1293.583740 
M1302.343872,1283.215942 
	C1278.746460,1266.438965 1252.765625,1257.103027 1223.518188,1258.136230 
	C1210.034424,1258.612549 1196.555664,1259.776367 1183.077515,1259.734131 
	C1167.271484,1259.684814 1151.470459,1258.599976 1135.663330,1258.085327 
	C1125.925903,1257.768311 1119.008057,1263.729248 1119.133667,1272.069336 
	C1119.256226,1280.203613 1126.135376,1286.018188 1135.472778,1285.815552 
	C1139.469360,1285.728760 1143.480347,1285.699341 1147.453247,1285.316772 
	C1150.759155,1284.998413 1152.284302,1285.806763 1152.381104,1289.490112 
	C1153.304688,1324.618530 1155.132202,1359.742554 1155.161743,1394.869141 
	C1155.187744,1425.666870 1153.292725,1456.468262 1152.135498,1487.263916 
	C1151.782593,1496.656860 1155.764526,1503.487305 1164.123901,1507.290161 
	C1168.912598,1509.468750 1174.167969,1510.895264 1179.361572,1511.865601 
	C1213.095337,1518.167603 1243.958374,1510.948975 1272.526855,1492.186523 
	C1306.233765,1470.049683 1326.534546,1438.844482 1336.141602,1400.141357 
	C1340.660156,1381.937744 1341.114258,1363.608398 1338.186035,1345.121094 
	C1334.227905,1320.132446 1323.512451,1299.065552 1302.343872,1283.215942 
M756.454346,1258.046143 
	C754.788635,1258.069092 753.122742,1258.082397 751.457275,1258.116577 
	C726.523376,1258.628418 701.589600,1262.124756 676.652649,1258.111084 
	C675.514648,1257.927856 674.320129,1258.003906 673.158813,1258.073242 
	C667.318542,1258.421875 661.084106,1263.930786 660.188477,1269.492920 
	C659.179749,1275.757324 662.671997,1281.826538 668.972046,1284.033447 
	C671.582153,1284.947876 674.478760,1285.441406 677.240723,1285.424194 
	C680.633423,1285.402954 682.020630,1286.409912 681.975037,1289.977051 
	C681.906860,1295.299561 682.239868,1300.633911 682.560608,1305.953735 
	C685.692505,1357.899048 685.087158,1409.848633 682.866211,1461.804810 
	C682.375305,1473.288086 681.941223,1484.778320 681.776367,1496.269409 
	C681.667725,1503.841675 687.608521,1511.449829 694.653137,1513.509644 
	C701.811035,1515.602539 709.799744,1512.506104 713.638794,1505.060181 
	C715.512573,1501.426025 716.362610,1496.819336 716.266296,1492.685669 
	C715.598938,1464.043335 714.557434,1435.409790 713.648499,1406.772949 
	C713.592041,1404.994263 713.641235,1403.212158 713.641235,1399.658936 
	C721.604370,1403.934570 728.669983,1407.138062 735.122559,1411.293579 
	C765.590576,1430.915527 786.051880,1458.981689 802.025085,1490.901855 
	C805.469177,1497.784302 809.922119,1504.326416 814.839783,1510.254150 
	C818.660889,1514.860107 824.459412,1514.980469 830.074768,1512.907959 
	C835.610962,1510.864746 837.903137,1506.569946 838.425415,1501.010620 
	C839.494141,1489.635498 836.090027,1479.265991 830.928040,1469.428467 
	C816.640930,1442.200684 795.249756,1421.638794 769.821960,1404.929321 
	C768.549133,1404.093018 767.343628,1403.154053 765.438965,1401.781616 
	C767.345642,1400.851929 768.310608,1400.350586 769.300110,1399.903564 
	C795.942627,1387.868774 817.174988,1370.770020 822.955139,1340.209717 
	C826.108826,1323.536133 825.346680,1306.961670 816.734863,1291.692749 
	C803.742249,1268.656738 782.407410,1260.093750 756.454346,1258.046143 
M529.694519,1366.268311 
	C529.365662,1390.919800 529.213867,1415.575439 528.648926,1440.221558 
	C528.236694,1458.207397 527.243713,1476.179199 526.579346,1494.159912 
	C526.165710,1505.354614 534.601807,1514.342896 545.027283,1513.960938 
	C554.336243,1513.619873 562.053589,1504.775757 561.708435,1494.431396 
	C561.002747,1473.284668 560.246826,1452.137939 559.274780,1431.002197 
	C557.120667,1384.164429 559.235535,1337.392822 561.058838,1290.608521 
	C561.245789,1285.811157 562.731567,1284.501831 567.544312,1284.734741 
	C584.346741,1285.548462 601.170776,1286.032471 617.992004,1286.289673 
	C625.747986,1286.408447 631.275757,1281.695801 632.373779,1275.053833 
	C633.649902,1267.334229 630.149353,1261.196899 622.519531,1258.801392 
	C619.752319,1257.932739 616.600159,1258.059204 613.629456,1258.105713 
	C583.319336,1258.579346 553.011536,1259.417480 522.700562,1259.547852 
	C505.386688,1259.622314 488.070648,1258.445557 470.750305,1258.094727 
	C462.056976,1257.918579 455.789398,1263.995239 455.691528,1272.013306 
	C455.584106,1280.813232 461.815063,1286.562256 471.749634,1286.339478 
	C488.236633,1285.969727 504.725525,1285.503784 521.196472,1284.718872 
	C525.476685,1284.514893 526.639832,1285.804932 526.776611,1289.898071 
	C527.616943,1315.040161 528.682617,1340.174561 529.694519,1366.268311 
z"/>
<path fill="#000000" opacity="0.000000" stroke="none" 
	d="
M640.141846,1709.862549 
	C649.347107,1718.781006 658.302917,1727.447388 667.258728,1736.113770 
	C667.007874,1736.613403 666.757080,1737.113037 666.506287,1737.612671 
	C665.154846,1737.738037 663.803345,1737.973145 662.451904,1737.973022 
	C589.635986,1737.962036 516.818298,1738.219971 444.005127,1737.757568 
	C415.765839,1737.578369 387.963470,1733.621460 361.702393,1722.153320 
	C331.699432,1709.051514 311.731018,1686.625854 299.977478,1656.404297 
	C289.140106,1628.538452 285.068573,1599.312988 284.886017,1569.794434 
	C284.462616,1501.318481 285.182159,1432.835571 285.436920,1364.355469 
	C285.445251,1362.118896 285.437988,1359.882202 285.437988,1356.579102 
	C287.278137,1357.814697 288.123962,1358.208496 288.747864,1358.826172 
	C357.654022,1427.053589 426.727264,1495.113647 495.371613,1563.603638 
	C543.846924,1611.970093 591.739502,1660.920654 640.141846,1709.862549 
z"/>
<path fill="#000000" opacity="0.000000" stroke="none" 
	d="
M1605.723999,290.866699 
	C1625.135620,292.474762 1643.775391,295.420471 1661.868042,301.661133 
	C1694.879517,313.047607 1718.324341,334.547211 1732.003052,366.673340 
	C1741.829346,389.751251 1746.438354,414.032593 1747.993530,438.905457 
	C1751.918701,501.676880 1748.483887,564.492065 1748.789185,627.286560 
	C1748.851562,640.115112 1748.636108,652.945068 1748.529053,665.774231 
	C1748.516968,667.218323 1748.377930,668.661377 1748.212891,671.634338 
	C1619.388062,545.483643 1492.760010,418.973755 1366.427612,290.013580 
	C1369.247803,290.013580 1370.801758,290.013092 1372.355713,290.013672 
	C1444.834351,290.041168 1517.313110,290.054199 1589.791748,290.127258 
	C1594.948975,290.132477 1600.105835,290.578278 1605.723999,290.866699 
z"/>
<path fill="#000000" opacity="0.000000" stroke="none" 
	d="
M1924.899170,886.105286 
	C1945.519775,908.015991 1964.130615,930.937500 1976.853882,958.115295 
	C1988.743164,983.511414 1992.847656,1009.812500 1985.751953,1037.278687 
	C1980.128418,1059.046021 1968.949707,1078.025879 1955.452881,1095.760498 
	C1937.513916,1119.331665 1915.591919,1139.161377 1894.833130,1160.067139 
	C1856.212524,1198.960938 1817.374268,1237.638794 1778.623047,1276.403076 
	C1778.171021,1276.855347 1777.670898,1277.259399 1776.308350,1278.475952 
	C1773.825073,1098.395752 1774.143921,919.245972 1776.281006,738.300171 
	C1826.397095,788.141235 1875.523438,836.997864 1924.899170,886.105286 
z"/>
<path fill="#000000" opacity="0.000000" stroke="none" 
	d="
M49.904335,985.092041 
	C57.202778,961.776978 69.225029,941.327148 85.432182,923.992310 
	C114.095383,893.334717 143.826553,863.669434 173.327484,833.802979 
	C200.379318,806.416016 227.716003,779.310364 254.936111,752.089722 
	C255.590393,751.435425 256.350403,750.886841 257.696106,749.754700 
	C260.151276,929.645630 259.862732,1108.775879 257.710297,1289.242798 
	C255.419907,1286.963623 253.876495,1285.418091 252.322845,1283.883057 
	C209.646423,1241.721313 166.931046,1199.599121 124.306870,1157.384644 
	C101.062897,1134.364014 79.107140,1110.269897 63.046738,1081.443604 
	C51.267925,1060.302124 43.580879,1037.934082 44.988590,1013.428833 
	C45.527245,1004.052063 48.144146,994.794556 49.904335,985.092041 
z"/>
<path fill="#ffffff" opacity="1.000000" stroke="none" 
	d="
M793.937378,1043.064941 
	C762.880798,1011.317749 739.826904,974.825806 724.594055,933.573486 
	C707.404724,887.022705 701.961731,838.945862 707.575012,789.597046 
	C713.205383,740.097534 729.839050,694.622559 757.470642,653.249451 
	C791.416687,602.421753 836.391479,564.505066 892.421387,540.008606 
	C944.539429,517.222351 999.044617,509.185455 1055.426636,516.388916 
	C1131.811401,526.147827 1196.088867,559.855103 1248.074463,616.666504 
	C1279.560303,651.075134 1301.861694,690.875366 1315.361206,735.464478 
	C1327.827637,776.641296 1331.264282,818.701843 1326.412109,861.484375 
	C1320.158325,916.624756 1300.364014,966.488464 1267.444336,1010.952942 
	C1235.029785,1054.735107 1193.763794,1087.823853 1143.942749,1110.173950 
	C1118.757324,1121.472290 1092.557495,1129.336670 1065.342041,1133.502930 
	C1036.063232,1137.984863 1006.677307,1138.381104 977.199768,1134.580444 
	C923.265442,1127.626587 874.491089,1107.895264 831.016174,1075.475220 
	C817.988953,1065.760620 806.414673,1054.097412 793.937378,1043.064941 
M1305.252930,814.682739 
	C1304.195679,790.292358 1300.509155,766.308594 1293.445312,742.933167 
	C1283.049805,708.533875 1267.096436,676.903076 1244.739136,648.705261 
	C1193.590210,584.194397 1126.923462,547.287292 1045.143188,538.542603 
	C1006.156128,534.373718 967.610840,538.464966 930.152893,550.380249 
	C898.895264,560.323364 869.849915,574.891724 843.824097,594.954773 
	C780.972534,643.406372 743.064758,706.697510 731.453186,785.435059 
	C725.302612,827.141907 728.627319,868.233765 740.634399,908.502319 
	C752.477966,948.222595 772.093384,983.853149 799.596680,1014.988586 
	C845.561646,1067.023804 902.713074,1098.986572 971.283447,1110.289429 
	C1021.883789,1118.630005 1071.307617,1113.489746 1119.132690,1095.452271 
	C1167.096924,1077.362427 1207.659302,1048.317261 1240.010864,1008.462524 
	C1285.559326,952.350037 1307.066528,887.885498 1305.252930,814.682739 
z"/>
<path fill="#7CD6F8" opacity="1.000000" stroke="none" 
	d="
M1038.032471,1452.168701 
	C1036.924316,1436.909790 1035.743652,1422.131470 1034.798340,1407.338257 
	C1034.564453,1403.677979 1033.534790,1402.134033 1029.484497,1402.134766 
	C997.013367,1402.140869 964.541931,1401.952759 932.071411,1401.711792 
	C928.690186,1401.686768 927.067017,1402.915894 925.931946,1406.123291 
	C917.124878,1431.012085 908.876526,1456.166260 896.144775,1479.424683 
	C891.540833,1487.835205 886.108948,1495.889771 880.222290,1503.459351 
	C877.298096,1507.219604 872.788818,1510.088379 868.464355,1512.336548 
	C862.312195,1515.534668 855.604614,1514.423340 851.845093,1510.229370 
	C847.299011,1505.157471 846.139099,1498.659668 849.115112,1493.020264 
	C852.860107,1485.923828 857.565491,1478.981689 863.192688,1473.295044 
	C882.447937,1453.836060 895.456787,1430.771484 904.625366,1405.272949 
	C904.841858,1404.670776 904.949036,1404.029419 905.387146,1402.302368 
	C900.587952,1402.302368 896.220581,1402.442993 891.865540,1402.270142 
	C884.949951,1401.995605 880.189026,1398.242676 878.673950,1392.157593 
	C877.269836,1386.517700 880.100586,1379.979858 885.820618,1377.029297 
	C888.225464,1375.788818 891.204407,1375.243164 893.946228,1375.159058 
	C900.100342,1374.970215 906.311523,1374.864136 912.418213,1375.502075 
	C916.868958,1375.967163 918.415710,1373.882446 920.159973,1370.431763 
	C928.399048,1354.132324 936.106445,1337.481934 945.568665,1321.907715 
	C953.726990,1308.479370 963.995239,1296.333252 973.325134,1283.616211 
	C973.799683,1282.969360 974.222046,1282.284424 975.259460,1280.734863 
	C973.070312,1280.625977 971.567505,1280.391235 970.090515,1280.501953 
	C950.825439,1281.946167 931.564331,1283.443481 912.301453,1284.916382 
	C907.984070,1285.246582 903.667114,1285.713989 899.343445,1285.803223 
	C890.436523,1285.986938 884.147278,1280.613037 884.001282,1272.940430 
	C883.838684,1264.400757 890.240540,1257.892700 899.244019,1258.085938 
	C921.727844,1258.568115 944.207397,1259.855591 966.686340,1259.802612 
	C997.165222,1259.730591 1027.641846,1258.708374 1058.119629,1258.098999 
	C1060.285034,1258.055786 1062.452393,1258.005127 1064.617188,1258.046387 
	C1073.321289,1258.212646 1078.990234,1263.966675 1078.960693,1272.562500 
	C1078.932251,1280.836304 1073.895020,1285.560791 1064.804565,1285.839844 
	C1055.520386,1286.124878 1055.635010,1286.125488 1055.591309,1295.525513 
	C1055.409058,1334.726074 1057.734741,1373.801147 1062.442993,1412.688232 
	C1065.362671,1436.803345 1069.668823,1460.748047 1073.077881,1484.808105 
	C1073.839966,1490.187134 1074.348877,1495.892822 1073.389038,1501.159058 
	C1071.832886,1509.696655 1065.213379,1514.371338 1057.404175,1513.940552 
	C1049.834106,1513.522949 1042.721558,1507.438232 1041.895752,1499.446045 
	C1040.286865,1483.879028 1039.294556,1468.248291 1038.032471,1452.168701 
M1031.871582,1358.665039 
	C1030.606323,1334.238159 1029.288574,1309.813843 1028.143433,1285.381348 
	C1028.002930,1282.382568 1027.037354,1280.960083 1024.067383,1281.304565 
	C1019.156860,1281.874146 1014.062073,1281.910645 1009.397034,1283.329468 
	C998.083374,1286.770386 989.499084,1294.429932 981.647339,1302.949829 
	C967.296509,1318.521729 957.154785,1336.802490 947.913818,1355.640503 
	C944.811707,1361.964233 942.013916,1368.437134 939.136597,1374.712036 
	C940.064148,1375.355347 940.325623,1375.695801 940.585327,1375.694580 
	C970.193420,1375.552856 999.801880,1375.421021 1029.407593,1375.068604 
	C1030.405762,1375.056641 1032.144043,1372.853394 1032.219116,1371.593140 
	C1032.455688,1367.624878 1032.062866,1363.619263 1031.871582,1358.665039 
z"/>
<path fill="#7CD6F8" opacity="1.000000" stroke="none" 
	d="
M1554.823975,1294.075195 
	C1555.137329,1335.590942 1557.220459,1376.526489 1562.369873,1417.231689 
	C1565.356812,1440.842407 1569.597168,1464.292480 1572.880371,1487.869507 
	C1573.569214,1492.815430 1573.344849,1498.208984 1572.106812,1503.027588 
	C1570.246704,1510.266602 1564.507324,1514.044800 1557.829468,1513.969971 
	C1550.985962,1513.893433 1544.265503,1509.261353 1542.179321,1502.793579 
	C1541.217651,1499.812256 1540.582031,1496.645264 1540.351196,1493.521484 
	C1538.215088,1464.611450 1536.148315,1435.695801 1534.219238,1406.771362 
	C1533.999390,1403.475098 1533.180298,1402.165283 1529.603271,1402.161987 
	C1496.958862,1402.132080 1464.314453,1401.945190 1431.670532,1401.727295 
	C1428.461914,1401.705811 1426.743164,1402.554565 1425.493774,1405.942261 
	C1418.542603,1424.789795 1411.659668,1443.684814 1403.888062,1462.200439 
	C1397.719116,1476.898193 1390.876709,1491.443237 1379.862183,1503.359741 
	C1376.858765,1506.609131 1373.320923,1509.629272 1369.483398,1511.783936 
	C1362.845459,1515.510864 1355.559937,1514.601807 1351.364502,1510.394531 
	C1347.237793,1506.256226 1345.521240,1496.859863 1349.163574,1491.262207 
	C1354.027954,1483.786133 1359.348145,1476.404785 1365.560913,1470.046143 
	C1383.280518,1451.911377 1394.644897,1430.129272 1403.626343,1406.834595 
	C1404.076050,1405.668213 1404.080566,1404.330200 1404.417358,1402.331177 
	C1400.153931,1402.331177 1396.373535,1402.405396 1392.597046,1402.316406 
	C1383.258057,1402.096069 1377.881226,1397.148071 1377.988403,1388.970947 
	C1378.093994,1380.901367 1384.319458,1375.118774 1393.110107,1375.100098 
	C1399.274048,1375.086914 1405.476929,1374.890991 1411.590088,1375.500977 
	C1416.128662,1375.953857 1417.967041,1373.973633 1419.820801,1370.299927 
	C1428.273682,1353.548828 1436.265869,1336.494019 1445.893433,1320.429321 
	C1453.457764,1307.807129 1463.173340,1296.474487 1471.923828,1284.562134 
	C1472.653687,1283.568359 1473.310669,1282.521240 1474.853394,1280.238159 
	C1467.900024,1280.597168 1462.192383,1280.759521 1456.507324,1281.209839 
	C1438.239746,1282.656494 1419.984131,1284.251465 1401.714844,1285.674316 
	C1399.092407,1285.878662 1396.293457,1285.913940 1393.795288,1285.228638 
	C1385.955688,1283.078369 1382.615479,1277.720093 1383.737427,1269.849121 
	C1384.644897,1263.483276 1390.883667,1257.998169 1397.859863,1258.094971 
	C1411.686646,1258.286865 1425.510254,1259.181641 1439.332397,1259.123901 
	C1478.811401,1258.959229 1518.289185,1258.462891 1557.767456,1258.096558 
	C1559.767090,1258.078003 1561.767456,1258.008545 1563.766235,1258.042236 
	C1574.565796,1258.223633 1581.191162,1267.556885 1577.686279,1277.740356 
	C1575.963989,1282.744507 1571.856445,1284.771606 1567.032227,1285.644775 
	C1565.571411,1285.909302 1564.042603,1285.846558 1562.544678,1285.849121 
	C1553.203369,1285.865601 1554.851685,1285.625610 1554.823975,1294.075195 
M1518.826172,1375.532959 
	C1520.822998,1375.467896 1522.819580,1375.399536 1524.816528,1375.338379 
	C1532.122437,1375.114502 1532.197021,1375.111694 1531.835938,1367.906006 
	C1530.535889,1341.969604 1529.121094,1316.038818 1527.879150,1290.099609 
	C1527.441528,1280.960693 1526.541992,1280.063110 1517.232178,1281.283325 
	C1516.902710,1281.326538 1516.580566,1281.424316 1516.251587,1281.471924 
	C1501.731689,1283.574951 1491.088867,1292.204468 1481.553955,1302.448120 
	C1467.246826,1317.818726 1457.030640,1335.894531 1447.891235,1354.623169 
	C1444.590576,1361.386963 1441.519287,1368.262939 1438.128174,1375.549805 
	C1465.370850,1375.549805 1491.630371,1375.549805 1518.826172,1375.532959 
z"/>
<path fill="#7CD6F8" opacity="1.000000" stroke="none" 
	d="
M1302.622314,1283.437256 
	C1323.512451,1299.065552 1334.227905,1320.132446 1338.186035,1345.121094 
	C1341.114258,1363.608398 1340.660156,1381.937744 1336.141602,1400.141357 
	C1326.534546,1438.844482 1306.233765,1470.049683 1272.526855,1492.186523 
	C1243.958374,1510.948975 1213.095337,1518.167603 1179.361572,1511.865601 
	C1174.167969,1510.895264 1168.912598,1509.468750 1164.123901,1507.290161 
	C1155.764526,1503.487305 1151.782593,1496.656860 1152.135498,1487.263916 
	C1153.292725,1456.468262 1155.187744,1425.666870 1155.161743,1394.869141 
	C1155.132202,1359.742554 1153.304688,1324.618530 1152.381104,1289.490112 
	C1152.284302,1285.806763 1150.759155,1284.998413 1147.453247,1285.316772 
	C1143.480347,1285.699341 1139.469360,1285.728760 1135.472778,1285.815552 
	C1126.135376,1286.018188 1119.256226,1280.203613 1119.133667,1272.069336 
	C1119.008057,1263.729248 1125.925903,1257.768311 1135.663330,1258.085327 
	C1151.470459,1258.599976 1167.271484,1259.684814 1183.077515,1259.734131 
	C1196.555664,1259.776367 1210.034424,1258.612549 1223.518188,1258.136230 
	C1252.765625,1257.103027 1278.746460,1266.438965 1302.622314,1283.437256 
M1298.822266,1438.230835 
	C1313.917725,1411.766357 1316.510742,1383.507080 1310.272217,1354.223022 
	C1302.618530,1318.295654 1279.567871,1297.293701 1244.811646,1287.896362 
	C1227.529297,1283.223511 1209.923706,1283.308472 1192.252686,1283.567383 
	C1188.437012,1283.623169 1187.138916,1284.753540 1186.890625,1288.679565 
	C1182.985229,1350.437744 1182.987549,1412.195068 1186.606812,1473.959595 
	C1187.234619,1484.673340 1187.324219,1484.614502 1197.749512,1486.549316 
	C1241.397705,1494.650391 1276.948608,1472.738770 1298.822266,1438.230835 
z"/>
<path fill="#7CD6F8" opacity="1.000000" stroke="none" 
	d="
M756.944580,1258.051758 
	C782.407410,1260.093750 803.742249,1268.656738 816.734863,1291.692749 
	C825.346680,1306.961670 826.108826,1323.536133 822.955139,1340.209717 
	C817.174988,1370.770020 795.942627,1387.868774 769.300110,1399.903564 
	C768.310608,1400.350586 767.345642,1400.851929 765.438965,1401.781616 
	C767.343628,1403.154053 768.549133,1404.093018 769.821960,1404.929321 
	C795.249756,1421.638794 816.640930,1442.200684 830.928040,1469.428467 
	C836.090027,1479.265991 839.494141,1489.635498 838.425415,1501.010620 
	C837.903137,1506.569946 835.610962,1510.864746 830.074768,1512.907959 
	C824.459412,1514.980469 818.660889,1514.860107 814.839783,1510.254150 
	C809.922119,1504.326416 805.469177,1497.784302 802.025085,1490.901855 
	C786.051880,1458.981689 765.590576,1430.915527 735.122559,1411.293579 
	C728.669983,1407.138062 721.604370,1403.934570 713.641235,1399.658936 
	C713.641235,1403.212158 713.592041,1404.994263 713.648499,1406.772949 
	C714.557434,1435.409790 715.598938,1464.043335 716.266296,1492.685669 
	C716.362610,1496.819336 715.512573,1501.426025 713.638794,1505.060181 
	C709.799744,1512.506104 701.811035,1515.602539 694.653137,1513.509644 
	C687.608521,1511.449829 681.667725,1503.841675 681.776367,1496.269409 
	C681.941223,1484.778320 682.375305,1473.288086 682.866211,1461.804810 
	C685.087158,1409.848633 685.692505,1357.899048 682.560608,1305.953735 
	C682.239868,1300.633911 681.906860,1295.299561 681.975037,1289.977051 
	C682.020630,1286.409912 680.633423,1285.402954 677.240723,1285.424194 
	C674.478760,1285.441406 671.582153,1284.947876 668.972046,1284.033447 
	C662.671997,1281.826538 659.179749,1275.757324 660.188477,1269.492920 
	C661.084106,1263.930786 667.318542,1258.421875 673.158813,1258.073242 
	C674.320129,1258.003906 675.514648,1257.927856 676.652649,1258.111084 
	C701.589600,1262.124756 726.523376,1258.628418 751.457275,1258.116577 
	C753.122742,1258.082397 754.788635,1258.069092 756.944580,1258.051758 
M786.207825,1368.699341 
	C795.931763,1358.722534 798.890869,1346.603882 798.386292,1332.982666 
	C797.406494,1306.535400 781.971252,1291.393066 759.020691,1286.320679 
	C746.390747,1283.529419 732.946411,1284.419800 719.868713,1283.659424 
	C716.565674,1283.467407 716.225586,1285.573242 716.144592,1288.196533 
	C715.322083,1314.838623 714.332886,1341.475952 713.605713,1368.120361 
	C713.277832,1380.132324 713.420349,1380.484863 725.239075,1383.123657 
	C747.513794,1388.097412 767.754883,1383.400146 786.207825,1368.699341 
z"/>
<path fill="#7CD6F9" opacity="1.000000" stroke="none" 
	d="
M529.683899,1365.789917 
	C528.682617,1340.174561 527.616943,1315.040161 526.776611,1289.898071 
	C526.639832,1285.804932 525.476685,1284.514893 521.196472,1284.718872 
	C504.725525,1285.503784 488.236633,1285.969727 471.749634,1286.339478 
	C461.815063,1286.562256 455.584106,1280.813232 455.691528,1272.013306 
	C455.789398,1263.995239 462.056976,1257.918579 470.750305,1258.094727 
	C488.070648,1258.445557 505.386688,1259.622314 522.700562,1259.547852 
	C553.011536,1259.417480 583.319336,1258.579346 613.629456,1258.105713 
	C616.600159,1258.059204 619.752319,1257.932739 622.519531,1258.801392 
	C630.149353,1261.196899 633.649902,1267.334229 632.373779,1275.053833 
	C631.275757,1281.695801 625.747986,1286.408447 617.992004,1286.289673 
	C601.170776,1286.032471 584.346741,1285.548462 567.544312,1284.734741 
	C562.731567,1284.501831 561.245789,1285.811157 561.058838,1290.608521 
	C559.235535,1337.392822 557.120667,1384.164429 559.274780,1431.002197 
	C560.246826,1452.137939 561.002747,1473.284668 561.708435,1494.431396 
	C562.053589,1504.775757 554.336243,1513.619873 545.027283,1513.960938 
	C534.601807,1514.342896 526.165710,1505.354614 526.579346,1494.159912 
	C527.243713,1476.179199 528.236694,1458.207397 528.648926,1440.221558 
	C529.213867,1415.575439 529.365662,1390.919800 529.683899,1365.789917 
z"/>
<path fill="#000000" opacity="1.000000" stroke="none" 
	d="
M1305.273682,815.163940 
	C1307.066528,887.885498 1285.559326,952.350037 1240.010864,1008.462524 
	C1207.659302,1048.317261 1167.096924,1077.362427 1119.132690,1095.452271 
	C1071.307617,1113.489746 1021.883789,1118.630005 971.283447,1110.289429 
	C902.713074,1098.986572 845.561646,1067.023804 799.596680,1014.988586 
	C772.093384,983.853149 752.477966,948.222595 740.634399,908.502319 
	C728.627319,868.233765 725.302612,827.141907 731.453186,785.435059 
	C743.064758,706.697510 780.972534,643.406372 843.824097,594.954773 
	C869.849915,574.891724 898.895264,560.323364 930.152893,550.380249 
	C967.610840,538.464966 1006.156128,534.373718 1045.143188,538.542603 
	C1126.923462,547.287292 1193.590210,584.194397 1244.739136,648.705261 
	C1267.096436,676.903076 1283.049805,708.533875 1293.445312,742.933167 
	C1300.509155,766.308594 1304.195679,790.292358 1305.273682,815.163940 
M1136.576172,913.159729 
	C1154.837402,888.361694 1173.128418,863.585449 1191.346436,838.755676 
	C1199.587280,827.524109 1199.359741,823.298096 1191.062988,812.044250 
	C1162.020996,772.651428 1133.071899,733.190125 1104.065552,693.770874 
	C1097.554565,684.922485 1091.176880,675.961731 1084.317993,667.388550 
	C1079.747192,661.675476 1072.953247,660.528381 1066.771484,663.470459 
	C1060.491577,666.459290 1056.613403,672.722046 1058.312256,679.346741 
	C1059.382080,683.518433 1061.996948,687.485291 1064.603394,691.042175 
	C1092.942871,729.715088 1121.420776,768.286621 1149.836548,806.903687 
	C1150.441284,807.725464 1150.755737,808.760803 1151.517090,810.344421 
	C1148.792236,810.344421 1146.818970,810.344421 1144.845703,810.344421 
	C1049.027100,810.344360 953.208435,810.343689 857.389832,810.347961 
	C855.224304,810.348022 853.043823,810.251160 850.896057,810.462158 
	C843.645691,811.174316 838.274048,816.127258 836.805969,823.293945 
	C835.594482,829.207947 838.969971,836.328735 845.080322,838.892761 
	C848.316528,840.250732 852.184326,840.564270 855.767700,840.567383 
	C952.419495,840.651184 1049.071289,840.633484 1145.723145,840.632874 
	C1147.448242,840.632874 1149.173340,840.632812 1151.800659,840.632812 
	C1150.543579,842.829590 1149.940918,844.153259 1149.101440,845.304199 
	C1144.785278,851.221924 1140.394653,857.085266 1136.055054,862.985962 
	C1111.299683,896.645996 1086.517090,930.286011 1061.872070,964.026550 
	C1060.077393,966.483521 1058.625244,969.581604 1058.182251,972.555664 
	C1057.187378,979.233765 1061.438721,985.825867 1067.422363,988.070679 
	C1074.415405,990.694153 1081.005493,988.679321 1085.846313,982.124817 
	C1102.658447,959.361084 1119.395630,936.541931 1136.576172,913.159729 
z"/>
<path fill="#000000" opacity="0.000000" stroke="none" 
	d="
M1031.892700,1359.146484 
	C1032.062866,1363.619263 1032.455688,1367.624878 1032.219116,1371.593140 
	C1032.144043,1372.853394 1030.405762,1375.056641 1029.407593,1375.068604 
	C999.801880,1375.421021 970.193420,1375.552856 940.585327,1375.694580 
	C940.325623,1375.695801 940.064148,1375.355347 939.136597,1374.712036 
	C942.013916,1368.437134 944.811707,1361.964233 947.913818,1355.640503 
	C957.154785,1336.802490 967.296509,1318.521729 981.647339,1302.949829 
	C989.499084,1294.429932 998.083374,1286.770386 1009.397034,1283.329468 
	C1014.062073,1281.910645 1019.156860,1281.874146 1024.067383,1281.304565 
	C1027.037354,1280.960083 1028.002930,1282.382568 1028.143433,1285.381348 
	C1029.288574,1309.813843 1030.606323,1334.238159 1031.892700,1359.146484 
z"/>
<path fill="#000000" opacity="0.000000" stroke="none" 
	d="
M1518.358032,1375.541382 
	C1491.630371,1375.549805 1465.370850,1375.549805 1438.128174,1375.549805 
	C1441.519287,1368.262939 1444.590576,1361.386963 1447.891235,1354.623169 
	C1457.030640,1335.894531 1467.246826,1317.818726 1481.553955,1302.448120 
	C1491.088867,1292.204468 1501.731689,1283.574951 1516.251587,1281.471924 
	C1516.580566,1281.424316 1516.902710,1281.326538 1517.232178,1281.283325 
	C1526.541992,1280.063110 1527.441528,1280.960693 1527.879150,1290.099609 
	C1529.121094,1316.038818 1530.535889,1341.969604 1531.835938,1367.906006 
	C1532.197021,1375.111694 1532.122437,1375.114502 1524.816528,1375.338379 
	C1522.819580,1375.399536 1520.822998,1375.467896 1518.358032,1375.541382 
z"/>
<path fill="#000000" opacity="0.000000" stroke="none" 
	d="
M785.964478,1368.959351 
	C767.754883,1383.400146 747.513794,1388.097412 725.239075,1383.123657 
	C713.420349,1380.484863 713.277832,1380.132324 713.605713,1368.120361 
	C714.332886,1341.475952 715.322083,1314.838623 716.144592,1288.196533 
	C716.225586,1285.573242 716.565674,1283.467407 719.868713,1283.659424 
	C732.946411,1284.419800 746.390747,1283.529419 759.020691,1286.320679 
	C781.971252,1291.393066 797.406494,1306.535400 798.386292,1332.982666 
	C798.890869,1346.603882 795.931763,1358.722534 785.964478,1368.959351 
z"/>
<path fill="#7EF9D4" opacity="1.000000" stroke="none" 
	d="
M1136.368774,913.451782 
	C1119.395630,936.541931 1102.658447,959.361084 1085.846313,982.124817 
	C1081.005493,988.679321 1074.415405,990.694153 1067.422363,988.070679 
	C1061.438721,985.825867 1057.187378,979.233765 1058.182251,972.555664 
	C1058.625244,969.581604 1060.077393,966.483521 1061.872070,964.026550 
	C1086.517090,930.286011 1111.299683,896.645996 1136.055054,862.985962 
	C1140.394653,857.085266 1144.785278,851.221924 1149.101440,845.304199 
	C1149.940918,844.153259 1150.543579,842.829590 1151.800659,840.632812 
	C1149.173340,840.632812 1147.448242,840.632874 1145.723145,840.632874 
	C1049.071289,840.633484 952.419495,840.651184 855.767700,840.567383 
	C852.184326,840.564270 848.316528,840.250732 845.080322,838.892761 
	C838.969971,836.328735 835.594482,829.207947 836.805969,823.293945 
	C838.274048,816.127258 843.645691,811.174316 850.896057,810.462158 
	C853.043823,810.251160 855.224304,810.348022 857.389832,810.347961 
	C953.208435,810.343689 1049.027100,810.344360 1144.845703,810.344421 
	C1146.818970,810.344421 1148.792236,810.344421 1151.517090,810.344421 
	C1150.755737,808.760803 1150.441284,807.725464 1149.836548,806.903687 
	C1121.420776,768.286621 1092.942871,729.715088 1064.603394,691.042175 
	C1061.996948,687.485291 1059.382080,683.518433 1058.312256,679.346741 
	C1056.613403,672.722046 1060.491577,666.459290 1066.771484,663.470459 
	C1072.953247,660.528381 1079.747192,661.675476 1084.317993,667.388550 
	C1091.176880,675.961731 1097.554565,684.922485 1104.065552,693.770874 
	C1133.071899,733.190125 1162.020996,772.651428 1191.062988,812.044250 
	C1199.359741,823.298096 1199.587280,827.524109 1191.346436,838.755676 
	C1173.128418,863.585449 1154.837402,888.361694 1136.368774,913.451782 
z"/>
</svg>
