{
    "asset" : {
        "generator" : "Khronos glTF Blender I/O v3.4.50",
        "version" : "2.0"
    },
    "extensionsUsed" : [
        "KHR_materials_clearcoat"
    ],
    "scene" : 0,
    "scenes" : [
        {
            "name" : "Scene",
            "nodes" : [
                2
            ]
        }
    ],
    "nodes" : [
        {
            "mesh" : 0,
            "name" : "Object_6",
            "rotation" : [
                -0.011510344222187996,
                0.025338202714920044,
                -0.23647163808345795,
                0.9712397456169128
            ]
        },
        {
            "children" : [
                0
            ],
            "name" : "831293f61ea2495c85c5012eac2ad939.obj.cleaner.materialmerger.gle"
        },
        {
            "children" : [
                1
            ],
            "name" : "Sketchfab_model",
            "rotation" : [
                -0.5813316106796265,
                0.40998268127441406,
                0.47663041949272156,
                0.5165183544158936
            ]
        }
    ],
    "materials" : [
        {
            "doubleSided" : true,
            "extensions" : {
                "KHR_materials_clearcoat" : {
                    "clearcoatFactor" : 0.19627559185028076,
                    "clearcoatRoughnessFactor" : 0.03999999910593033
                }
            },
            "name" : "initialShadingGroup",
            "pbrMetallicRoughness" : {
                "baseColorFactor" : [
                    0.04011232778429985,
                    0.035183992236852646,
                    0.035183992236852646,
                    1
                ],
                "metallicFactor" : 0,
                "roughnessFactor" : 0.5809510946273804
            }
        },
        {
            "doubleSided" : true,
            "emissiveFactor" : [
                0.7161926627159119,
                0.7161926627159119,
                0.7161926627159119
            ],
            "emissiveTexture" : {
                "index" : 0
            },
            "extensions" : {
                "KHR_materials_clearcoat" : {
                    "clearcoatFactor" : 1,
                    "clearcoatRoughnessFactor" : 0.03211091458797455
                }
            },
            "name" : "blinn6SG",
            "pbrMetallicRoughness" : {
                "baseColorFactor" : [
                    0.396921306848526,
                    0.396921306848526,
                    0.396921306848526,
                    1
                ],
                "baseColorTexture" : {
                    "index" : 1
                },
                "metallicFactor" : 0.45164287090301514,
                "roughnessFactor" : 0.06859195232391357
            }
        },
        {
            "doubleSided" : true,
            "name" : "lambert15SG",
            "pbrMetallicRoughness" : {
                "baseColorTexture" : {
                    "index" : 2
                },
                "metallicFactor" : 0
            }
        },
        {
            "doubleSided" : true,
            "name" : "blinn7SG",
            "pbrMetallicRoughness" : {
                "baseColorFactor" : [
                    0.029903195798397064,
                    0.24743260443210602,
                    0,
                    1
                ],
                "metallicFactor" : 0,
                "roughnessFactor" : 0.4000000059604645
            }
        },
        {
            "doubleSided" : true,
            "name" : "lambert13SG",
            "pbrMetallicRoughness" : {
                "baseColorFactor" : [
                    0,
                    0,
                    0,
                    1
                ],
                "metallicFactor" : 0,
                "roughnessFactor" : 0.4000000059604645
            }
        },
        {
            "doubleSided" : true,
            "name" : "lambert14SG",
            "pbrMetallicRoughness" : {
                "baseColorFactor" : [
                    0,
                    0,
                    0,
                    1
                ],
                "metallicFactor" : 0,
                "roughnessFactor" : 0.4000000059604645
            }
        },
        {
            "doubleSided" : true,
            "name" : "lambert16SG",
            "pbrMetallicRoughness" : {
                "baseColorFactor" : [
                    0.27515819668769836,
                    0.2614814341068268,
                    0.30684220790863037,
                    1
                ],
                "metallicFactor" : 1,
                "roughnessFactor" : 0.42975208163261414
            }
        }
    ],
    "meshes" : [
        {
            "name" : "Object_4",
            "primitives" : [
                {
                    "attributes" : {
                        "POSITION" : 0,
                        "TEXCOORD_0" : 1,
                        "NORMAL" : 2
                    },
                    "indices" : 3,
                    "material" : 0
                },
                {
                    "attributes" : {
                        "POSITION" : 4,
                        "TEXCOORD_0" : 5,
                        "NORMAL" : 6
                    },
                    "indices" : 7,
                    "material" : 1
                },
                {
                    "attributes" : {
                        "POSITION" : 8,
                        "TEXCOORD_0" : 9,
                        "NORMAL" : 10
                    },
                    "indices" : 11,
                    "material" : 2
                },
                {
                    "attributes" : {
                        "POSITION" : 12,
                        "TEXCOORD_0" : 13,
                        "NORMAL" : 14
                    },
                    "indices" : 15,
                    "material" : 3
                },
                {
                    "attributes" : {
                        "POSITION" : 16,
                        "TEXCOORD_0" : 17,
                        "NORMAL" : 18
                    },
                    "indices" : 19,
                    "material" : 4
                },
                {
                    "attributes" : {
                        "POSITION" : 20,
                        "TEXCOORD_0" : 21,
                        "NORMAL" : 22
                    },
                    "indices" : 23,
                    "material" : 5
                },
                {
                    "attributes" : {
                        "POSITION" : 24,
                        "TEXCOORD_0" : 25,
                        "NORMAL" : 26
                    },
                    "indices" : 27,
                    "material" : 6
                }
            ]
        }
    ],
    "textures" : [
        {
            "sampler" : 0,
            "source" : 0
        },
        {
            "sampler" : 0,
            "source" : 0
        },
        {
            "sampler" : 0,
            "source" : 1
        }
    ],
    "images" : [
        {
            "bufferView" : 8,
            "mimeType" : "image/jpeg",
            "name" : "blinn6SG_baseColor"
        },
        {
            "bufferView" : 13,
            "mimeType" : "image/jpeg",
            "name" : "lambert15SG_baseColor"
        }
    ],
    "accessors" : [
        {
            "bufferView" : 0,
            "componentType" : 5126,
            "count" : 1232,
            "max" : [
                2.3392722606658936,
                0.7197046875953674,
                3.4465692043304443
            ],
            "min" : [
                -2.3157286643981934,
                -0.47723251581192017,
                -4.391890048980713
            ],
            "type" : "VEC3"
        },
        {
            "bufferView" : 1,
            "componentType" : 5126,
            "count" : 1232,
            "type" : "VEC2"
        },
        {
            "bufferView" : 2,
            "componentType" : 5126,
            "count" : 1232,
            "type" : "VEC3"
        },
        {
            "bufferView" : 3,
            "componentType" : 5123,
            "count" : 2532,
            "type" : "SCALAR"
        },
        {
            "bufferView" : 4,
            "componentType" : 5126,
            "count" : 28,
            "max" : [
                2.1667981147766113,
                -0.3527945280075073,
                2.5850441455841064
            ],
            "min" : [
                -2.1106507778167725,
                -0.3721015155315399,
                -0.31296828389167786
            ],
            "type" : "VEC3"
        },
        {
            "bufferView" : 5,
            "componentType" : 5126,
            "count" : 28,
            "type" : "VEC2"
        },
        {
            "bufferView" : 6,
            "componentType" : 5126,
            "count" : 28,
            "type" : "VEC3"
        },
        {
            "bufferView" : 7,
            "componentType" : 5123,
            "count" : 36,
            "type" : "SCALAR"
        },
        {
            "bufferView" : 9,
            "componentType" : 5126,
            "count" : 6,
            "max" : [
                1.9491380453109741,
                0.7197046875953674,
                2.974984884262085
            ],
            "min" : [
                -1.8943713903427124,
                0.6653285622596741,
                0.4442985951900482
            ],
            "type" : "VEC3"
        },
        {
            "bufferView" : 10,
            "componentType" : 5126,
            "count" : 6,
            "type" : "VEC2"
        },
        {
            "bufferView" : 11,
            "componentType" : 5126,
            "count" : 6,
            "type" : "VEC3"
        },
        {
            "bufferView" : 12,
            "componentType" : 5123,
            "count" : 6,
            "type" : "SCALAR"
        },
        {
            "bufferView" : 14,
            "componentType" : 5126,
            "count" : 755,
            "max" : [
                2.7951016426086426,
                0.5703315138816833,
                3.5240705013275146
            ],
            "min" : [
                -2.8171069622039795,
                -0.45037347078323364,
                -4.377603054046631
            ],
            "type" : "VEC3"
        },
        {
            "bufferView" : 15,
            "componentType" : 5126,
            "count" : 755,
            "type" : "VEC2"
        },
        {
            "bufferView" : 16,
            "componentType" : 5126,
            "count" : 755,
            "type" : "VEC3"
        },
        {
            "bufferView" : 17,
            "componentType" : 5123,
            "count" : 1542,
            "type" : "SCALAR"
        },
        {
            "bufferView" : 18,
            "componentType" : 5126,
            "count" : 619,
            "max" : [
                2.5037124156951904,
                -0.23691752552986145,
                -2.808511972427368
            ],
            "min" : [
                1.175521731376648,
                -0.4841075539588928,
                -3.949603319168091
            ],
            "type" : "VEC3"
        },
        {
            "bufferView" : 19,
            "componentType" : 5126,
            "count" : 619,
            "type" : "VEC2"
        },
        {
            "bufferView" : 20,
            "componentType" : 5126,
            "count" : 619,
            "type" : "VEC3"
        },
        {
            "bufferView" : 21,
            "componentType" : 5123,
            "count" : 720,
            "type" : "SCALAR"
        },
        {
            "bufferView" : 22,
            "componentType" : 5126,
            "count" : 40,
            "max" : [
                2.4467225074768066,
                -0.3604525327682495,
                3.093269109725952
            ],
            "min" : [
                -2.4004979133605957,
                -0.4419255256652832,
                -0.6512122750282288
            ],
            "type" : "VEC3"
        },
        {
            "bufferView" : 23,
            "componentType" : 5126,
            "count" : 40,
            "type" : "VEC2"
        },
        {
            "bufferView" : 24,
            "componentType" : 5126,
            "count" : 40,
            "type" : "VEC3"
        },
        {
            "bufferView" : 25,
            "componentType" : 5123,
            "count" : 72,
            "type" : "SCALAR"
        },
        {
            "bufferView" : 26,
            "componentType" : 5126,
            "count" : 1189,
            "max" : [
                2.3183305263519287,
                -0.33904749155044556,
                -0.8385993838310242
            ],
            "min" : [
                -2.2673299312591553,
                -0.6004384160041809,
                -3.5731780529022217
            ],
            "type" : "VEC3"
        },
        {
            "bufferView" : 27,
            "componentType" : 5126,
            "count" : 1189,
            "type" : "VEC2"
        },
        {
            "bufferView" : 28,
            "componentType" : 5126,
            "count" : 1189,
            "type" : "VEC3"
        },
        {
            "bufferView" : 29,
            "componentType" : 5123,
            "count" : 2409,
            "type" : "SCALAR"
        }
    ],
    "bufferViews" : [
        {
            "buffer" : 0,
            "byteLength" : 14784,
            "byteOffset" : 0,
            "target" : 34962
        },
        {
            "buffer" : 0,
            "byteLength" : 9856,
            "byteOffset" : 14784,
            "target" : 34962
        },
        {
            "buffer" : 0,
            "byteLength" : 14784,
            "byteOffset" : 24640,
            "target" : 34962
        },
        {
            "buffer" : 0,
            "byteLength" : 5064,
            "byteOffset" : 39424,
            "target" : 34963
        },
        {
            "buffer" : 0,
            "byteLength" : 336,
            "byteOffset" : 44488,
            "target" : 34962
        },
        {
            "buffer" : 0,
            "byteLength" : 224,
            "byteOffset" : 44824,
            "target" : 34962
        },
        {
            "buffer" : 0,
            "byteLength" : 336,
            "byteOffset" : 45048,
            "target" : 34962
        },
        {
            "buffer" : 0,
            "byteLength" : 72,
            "byteOffset" : 45384,
            "target" : 34963
        },
        {
            "buffer" : 0,
            "byteLength" : 67064,
            "byteOffset" : 45456
        },
        {
            "buffer" : 0,
            "byteLength" : 72,
            "byteOffset" : 112520,
            "target" : 34962
        },
        {
            "buffer" : 0,
            "byteLength" : 48,
            "byteOffset" : 112592,
            "target" : 34962
        },
        {
            "buffer" : 0,
            "byteLength" : 72,
            "byteOffset" : 112640,
            "target" : 34962
        },
        {
            "buffer" : 0,
            "byteLength" : 12,
            "byteOffset" : 112712,
            "target" : 34963
        },
        {
            "buffer" : 0,
            "byteLength" : 124370,
            "byteOffset" : 112724
        },
        {
            "buffer" : 0,
            "byteLength" : 9060,
            "byteOffset" : 237096,
            "target" : 34962
        },
        {
            "buffer" : 0,
            "byteLength" : 6040,
            "byteOffset" : 246156,
            "target" : 34962
        },
        {
            "buffer" : 0,
            "byteLength" : 9060,
            "byteOffset" : 252196,
            "target" : 34962
        },
        {
            "buffer" : 0,
            "byteLength" : 3084,
            "byteOffset" : 261256,
            "target" : 34963
        },
        {
            "buffer" : 0,
            "byteLength" : 7428,
            "byteOffset" : 264340,
            "target" : 34962
        },
        {
            "buffer" : 0,
            "byteLength" : 4952,
            "byteOffset" : 271768,
            "target" : 34962
        },
        {
            "buffer" : 0,
            "byteLength" : 7428,
            "byteOffset" : 276720,
            "target" : 34962
        },
        {
            "buffer" : 0,
            "byteLength" : 1440,
            "byteOffset" : 284148,
            "target" : 34963
        },
        {
            "buffer" : 0,
            "byteLength" : 480,
            "byteOffset" : 285588,
            "target" : 34962
        },
        {
            "buffer" : 0,
            "byteLength" : 320,
            "byteOffset" : 286068,
            "target" : 34962
        },
        {
            "buffer" : 0,
            "byteLength" : 480,
            "byteOffset" : 286388,
            "target" : 34962
        },
        {
            "buffer" : 0,
            "byteLength" : 144,
            "byteOffset" : 286868,
            "target" : 34963
        },
        {
            "buffer" : 0,
            "byteLength" : 14268,
            "byteOffset" : 287012,
            "target" : 34962
        },
        {
            "buffer" : 0,
            "byteLength" : 9512,
            "byteOffset" : 301280,
            "target" : 34962
        },
        {
            "buffer" : 0,
            "byteLength" : 14268,
            "byteOffset" : 310792,
            "target" : 34962
        },
        {
            "buffer" : 0,
            "byteLength" : 4818,
            "byteOffset" : 325060,
            "target" : 34963
        }
    ],
    "samplers" : [
        {
            "magFilter" : 9729,
            "minFilter" : 9987
        }
    ],
    "buffers" : [
        {
            "byteLength" : 329880,
            "uri" : "data:application/octet-stream;base64,"
        }
    ]
}
